<svg xmlns="http://www.w3.org/2000/svg" width="12.602" height="12.602" viewBox="0 0 12.602 12.602"><defs><style>.a{fill:#060055;stroke:#fff;stroke-width:0.2px;}</style></defs><g transform="translate(0.1 0.1)"><path class="a" d="M13.154,5.424A6.1,6.1,0,0,0,9.02,1.289,5.408,5.408,0,0,0,7.2,1,6.106,6.106,0,0,0,1.289,5.382,5.408,5.408,0,0,0,1,7.2a6.106,6.106,0,0,0,4.382,5.912A5.408,5.408,0,0,0,7.2,13.4,6.106,6.106,0,0,0,13.113,9.02,5.408,5.408,0,0,0,13.4,7.2,6.158,6.158,0,0,0,13.154,5.424ZM9.682,6.788H7.615V4.721a12.448,12.448,0,0,1,1.86.165A13.39,13.39,0,0,1,9.682,6.788Zm-2.894,0H4.721a12.448,12.448,0,0,1,.165-1.86,12.971,12.971,0,0,1,1.86-.165V6.788Zm-2.894,0H1.827a6.272,6.272,0,0,1,.124-.868,6.934,6.934,0,0,1,2.067-.827C3.977,5.63,3.894,6.209,3.894,6.788Zm-2.067.827H3.894c0,.579.083,1.158.124,1.695a7.421,7.421,0,0,1-2.067-.827Zm2.894,0H6.788V9.682a12.448,12.448,0,0,1-1.86-.165A14.088,14.088,0,0,1,4.721,7.615Zm2.894,0H9.682a12.971,12.971,0,0,1-.165,1.86,12.971,12.971,0,0,1-1.86.165V7.615Zm2.894,0h2.067l-.124.868a6.934,6.934,0,0,1-2.067.827C10.426,8.772,10.508,8.193,10.508,7.615Zm2.067-.827H10.508c0-.579-.083-1.158-.124-1.695a7.421,7.421,0,0,1,2.067.827ZM12,4.762a9.964,9.964,0,0,0-1.778-.579A9.965,9.965,0,0,0,9.64,2.406,5.877,5.877,0,0,1,12,4.762ZM9.31,4.018c-.537-.041-1.116-.124-1.695-.124V1.827a6.272,6.272,0,0,1,.868.124A7.421,7.421,0,0,1,9.31,4.018ZM6.788,1.827V3.894c-.579,0-1.158.083-1.695.124A7.421,7.421,0,0,1,5.92,1.951Zm-2.026.579a9.964,9.964,0,0,0-.579,1.778,7.474,7.474,0,0,0-1.778.579A5.877,5.877,0,0,1,4.762,2.406ZM2.406,9.64a9.965,9.965,0,0,0,1.778.579A9.964,9.964,0,0,0,4.762,12,5.877,5.877,0,0,1,2.406,9.64Zm2.687.7a11.277,11.277,0,0,0,1.695.124v2.067a6.272,6.272,0,0,1-.868-.124A6.5,6.5,0,0,1,5.093,10.343Zm2.522,2.232V10.508c.579,0,1.158-.083,1.695-.124a7.421,7.421,0,0,1-.827,2.067ZM9.64,12a9.965,9.965,0,0,0,.579-1.778A9.965,9.965,0,0,0,12,9.64,5.877,5.877,0,0,1,9.64,12Z" transform="translate(-1 -1)"/></g></svg>