<svg xmlns="http://www.w3.org/2000/svg" width="8.335" height="11.46" viewBox="0 0 8.335 11.46"><defs><style>.a{fill:#060055;}</style></defs><path class="a" d="M23.168,19.117l-.11-.088c-.162-.13-3.97-3.219-3.97-7.176a4.168,4.168,0,0,1,8.335,0c0,3.936-4.007,7.234-4.068,7.264A.168.168,0,0,1,23.168,19.117Zm.088-10.8a3.537,3.537,0,0,0-3.534,3.533c0,3.155,2.76,5.825,3.533,6.511.773-.689,3.534-3.373,3.534-6.511A3.537,3.537,0,0,0,23.257,8.32Zm0,5.307a2.222,2.222,0,1,1,2.222-2.222A2.224,2.224,0,0,1,23.257,13.627Zm0-3.809a1.588,1.588,0,1,0,1.588,1.587A1.589,1.589,0,0,0,23.257,9.818Z" transform="translate(-19.089 -7.686)"/></svg>