<svg xmlns="http://www.w3.org/2000/svg" width="11.402" height="11.46" viewBox="0 0 11.402 11.46"><defs><style>.a{fill:#060055;}</style></defs><path class="a" d="M8.479,11.477c-.209-.035-.42-.063-.628-.107a8.169,8.169,0,0,1-2.205-.9,11.784,11.784,0,0,1-2.9-2.274A11.637,11.637,0,0,1,.325,4.424,4.9,4.9,0,0,1-.03,2.812,1.941,1.941,0,0,1,.5,1.327C.823,1,1.134.658,1.479.358A1.119,1.119,0,0,1,3.108.38c.544.51,1.07,1.047,1.576,1.593a1.082,1.082,0,0,1,0,1.472c-.269.306-.567.584-.851.876-.026.024-.053.046-.1.089A8.293,8.293,0,0,0,7,7.669l.679-.686a1.713,1.713,0,0,1,.611-.459,1.026,1.026,0,0,1,1.117.2q.854.813,1.666,1.672A1.091,1.091,0,0,1,11.1,9.851c-.342.4-.721.786-1.105,1.155a1.7,1.7,0,0,1-.99.442.75.75,0,0,0-.078.023Zm.17-.689a1.31,1.31,0,0,0,1.016-.4c.257-.269.52-.532.779-.8a1.279,1.279,0,0,0,.095-.107.468.468,0,0,0-.014-.672c-.209-.226-.431-.44-.648-.659-.283-.283-.562-.567-.848-.845a.459.459,0,0,0-.668-.018c-.043.035-.081.075-.121.115-.272.271-.541.544-.815.812a.518.518,0,0,1-.65.109c-.167-.084-.332-.168-.492-.263a8.473,8.473,0,0,1-1.9-1.583A6.843,6.843,0,0,1,3.13,4.691a.58.58,0,0,1,.153-.8c.28-.272.579-.561.856-.854a.437.437,0,0,0,.011-.64c-.034-.04-.069-.076-.1-.113L2.7.932a.51.51,0,0,0-.83,0c-.287.286-.558.538-.819.824a1.528,1.528,0,0,0-.306.459A1.947,1.947,0,0,0,.735,3.337a6.8,6.8,0,0,0,.6,1.643A11.221,11.221,0,0,0,3.067,7.5,10.951,10.951,0,0,0,7.45,10.53a3.994,3.994,0,0,0,1.2.252Z" transform="translate(0.035 -0.017)"/></svg>